<svg xmlns="http://www.w3.org/2000/svg" viewBox="0 0 100 100" role="img" aria-label="RakTrack">
  <!-- Background transparent -->
  <!-- Scan corners -->
  <path d="M 12 31 L 12 14 Q 12 6 20 6 L 31 6" fill="none" stroke="#256B8C" stroke-width="5.5" stroke-linecap="round" stroke-linejoin="round"/>
  <path d="M 69 6 L 80 6 Q 88 6 88 14 L 88 31" fill="none" stroke="#256B8C" stroke-width="5.5" stroke-linecap="round" stroke-linejoin="round"/>
  <path d="M 88 69 L 88 80 Q 88 88 80 88 L 69 88" fill="none" stroke="#256B8C" stroke-width="5.5" stroke-linecap="round" stroke-linejoin="round"/>
  <path d="M 31 88 L 20 88 Q 12 88 12 80 L 12 69" fill="none" stroke="#256B8C" stroke-width="5.5" stroke-linecap="round" stroke-linejoin="round"/>
  <!-- Rack uprights -->
  <rect x="28.5" y="20.5" width="5.5" height="59" rx="1.2" fill="#256B8C"/>
  <rect x="66.5" y="20.5" width="5.5" height="59" rx="1.2" fill="#256B8C"/>
  <!-- Shelves -->
  <rect x="28.5" y="43.5" width="43" height="4.2" rx="1" fill="#256B8C"/>
  <rect x="28.5" y="59.5" width="43" height="4.2" rx="1" fill="#256B8C"/>
  <rect x="28.5" y="75.5" width="43" height="4.2" rx="1" fill="#256B8C"/>
  <!-- Bins row1 -->
  <rect x="33.5" y="28.5" width="16.5" height="11.5" rx="1.6" fill="#256B8C"/>
  <rect x="50.5" y="28.5" width="16.5" height="11.5" rx="1.6" fill="#256B8C"/>
  <!-- notch row1 -->
  <rect x="40.5" y="28.5" width="2.5" height="4" rx="0.8" fill="#0a0a0a"/>
  <rect x="58.5" y="28.5" width="2.5" height="4" rx="0.8" fill="#0a0a0a"/>
  <!-- Bins row2 -->
  <rect x="33.5" y="48.5" width="16.5" height="11" rx="1.6" fill="#256B8C"/>
  <rect x="50.5" y="48.5" width="16.5" height="11" rx="1.6" fill="#256B8C"/>
  <rect x="40.5" y="48.5" width="2.5" height="4" rx="0.8" fill="#0a0a0a"/>
  <rect x="58.5" y="48.5" width="2.5" height="4" rx="0.8" fill="#0a0a0a"/>
  <!-- Bins row3 -->
  <rect x="33.5" y="64.5" width="16.5" height="11" rx="1.6" fill="#256B8C"/>
  <rect x="50.5" y="64.5" width="16.5" height="11" rx="1.6" fill="#256B8C"/>
  <rect x="40.5" y="64.5" width="2.5" height="4" rx="0.8" fill="#0a0a0a"/>
  <rect x="58.5" y="64.5" width="2.5" height="4" rx="0.8" fill="#0a0a0a"/>
</svg>
