<svg xmlns="http://www.w3.org/2000/svg" viewBox="0 0 100 100" role="img" aria-label="RakTrack">
  <!-- Scan corners -->
  <path d="M 10 28 L 10 14 Q 10 5 19 5 L 28 5" fill="none" stroke="#256B8C" stroke-width="6" stroke-linecap="round" stroke-linejoin="round"/>
  <path d="M 72 5 L 81 5 Q 90 5 90 14 L 90 28" fill="none" stroke="#256B8C" stroke-width="6" stroke-linecap="round" stroke-linejoin="round"/>
  <path d="M 90 72 L 90 81 Q 90 90 81 90 L 72 90" fill="none" stroke="#256B8C" stroke-width="6" stroke-linecap="round" stroke-linejoin="round"/>
  <path d="M 28 90 L 19 90 Q 10 90 10 81 L 10 72" fill="none" stroke="#256B8C" stroke-width="6" stroke-linecap="round" stroke-linejoin="round"/>
  <!-- Rack uprights -->
  <rect x="27" y="18" width="6" height="64" rx="1.5" fill="#256B8C"/>
  <rect x="67" y="18" width="6" height="64" rx="1.5" fill="#256B8C"/>
  <!-- Shelves -->
  <rect x="27" y="41" width="46" height="4.5" rx="1" fill="#256B8C"/>
  <rect x="27" y="57.5" width="46" height="4.5" rx="1" fill="#256B8C"/>
  <rect x="27" y="74" width="46" height="4.5" rx="1" fill="#256B8C"/>
  <!-- Bins row1 -->
  <rect x="33" y="25" width="17" height="12" rx="2" fill="#256B8C"/>
  <rect x="50" y="25" width="17" height="12" rx="2" fill="#256B8C"/>
  <!-- notch row1 -->
  <rect x="39.5" y="25" width="4" height="3.5" rx="1" fill="#0B1A22"/>
  <rect x="56.5" y="25" width="4" height="3.5" rx="1" fill="#0B1A22"/>
  <!-- Bins row2 -->
  <rect x="33" y="46" width="17" height="11.5" rx="2" fill="#256B8C"/>
  <rect x="50" y="46" width="17" height="11.5" rx="2" fill="#256B8C"/>
  <rect x="39.5" y="46" width="4" height="3.5" rx="1" fill="#0B1A22"/>
  <rect x="56.5" y="46" width="4" height="3.5" rx="1" fill="#0B1A22"/>
  <!-- Bins row3 -->
  <rect x="33" y="62.5" width="17" height="11.5" rx="2" fill="#256B8C"/>
  <rect x="50" y="62.5" width="17" height="11.5" rx="2" fill="#256B8C"/>
  <rect x="39.5" y="62.5" width="4" height="3.5" rx="1" fill="#0B1A22"/>
  <rect x="56.5" y="62.5" width="4" height="3.5" rx="1" fill="#0B1A22"/>
</svg>
